<?xml version="1.0" encoding="utf-8"?>
<!-- Generator: Adobe Illustrator 25.4.8, SVG Export Plug-In . SVG Version: 6.00 Build 0)  -->
<svg version="1.1" id="Layer_1" xmlns="http://www.w3.org/2000/svg" xmlns:xlink="http://www.w3.org/1999/xlink" x="0px" y="0px"
	 viewBox="0 0 117.3 62.7" style="enable-background:new 0 0 117.3 62.7;" xml:space="preserve">
<style type="text/css">
	.st0{clip-path:url(#SVGID_00000146470680137643775440000008159768175994316716_);}
	.st1{clip-path:url(#SVGID_00000046332551182068327380000012386818298227587206_);}
	.st2{clip-path:url(#SVGID_00000132065578557751616410000017602473873978329525_);}
</style>
<g id="Grupo_1080" transform="translate(15122.378 10716.387)">
	<path id="Trazado_9126" d="M-15119.5-10665c-0.1-2.7,2-5,4.7-5.1c0.1,0,0.2,0,0.3,0c1.9-0.1,3.7,1,4.4,2.8l-0.9,0.3
		c-0.6-1.4-2-2.2-3.5-2.2c-2.2,0-4,1.8-4.1,4c0,0.1,0,0.1,0,0.2c-0.1,2.2,1.7,4.1,3.9,4.2c0.1,0,0.1,0,0.2,0
		c1.5,0.1,2.9-0.8,3.5-2.1l0.9,0.2c-0.7,1.8-2.5,2.9-4.4,2.8c-2.7,0-5-2.1-5-4.9C-15119.5-10664.9-15119.5-10664.9-15119.5-10665z"
		/>
	<path id="Trazado_9127" d="M-15106.7-10674.4h1v14.3h-1V-10674.4z"/>
	<path id="Trazado_9128" d="M-15102.3-10665c-0.1-2.7,2.1-5,4.9-5.1c0.1,0,0.2,0,0.2,0c2.7-0.1,5,2.1,5.1,4.8c0,0.1,0,0.2,0,0.2
		c0.1,2.7-2.1,5-4.8,5.1c-0.1,0-0.2,0-0.2,0c-2.8,0.1-5-2.1-5.1-4.9C-15102.3-10664.9-15102.3-10664.9-15102.3-10665z M-15093-10665
		c0.1-2.3-1.7-4.1-4-4.2c0,0-0.1,0-0.1,0c-2.3,0-4.1,1.8-4.2,4c0,0,0,0.1,0,0.1c0,2.3,1.7,4.1,4,4.2c0.1,0,0.1,0,0.2,0
		c2.3,0,4.1-1.8,4.1-4C-15093.1-10664.9-15093.1-10664.9-15093-10665L-15093-10665z"/>
	<path id="Trazado_9129" d="M-15080-10669.8v9.7h-1v-2c-0.7,1.4-2.2,2.3-3.8,2.2c-2.4,0-3.9-1.5-3.9-4.2v-5.7h1v5.6
		c0,2.1,1.1,3.4,3.1,3.4c2.2,0,3.7-1.7,3.7-4.1v-4.9L-15080-10669.8z"/>
	<path id="Trazado_9130" d="M-15066.4-10674.4v14.3h-1v-2.1c-0.9,1.5-2.5,2.4-4.2,2.3c-2.7,0-4.9-2.1-5-4.8c0-0.1,0-0.2,0-0.3
		c-0.1-2.7,2-5,4.7-5.1c0.1,0,0.2,0,0.3,0c1.7-0.1,3.3,0.8,4.2,2.3v-6.6L-15066.4-10674.4z M-15067.3-10665c0-2.3-1.8-4.2-4.1-4.2
		c0,0,0,0,0,0c-2.2,0-4,1.7-4.1,3.9c0,0.1,0,0.2,0,0.3c-0.1,2.2,1.6,4.1,3.8,4.2c0.1,0,0.2,0,0.2,0
		C-15069.2-10660.8-15067.3-10662.7-15067.3-10665C-15067.3-10665-15067.3-10665-15067.3-10665L-15067.3-10665z"/>
	<path id="Trazado_9131" d="M-15053.5-10665.9v5.7h-1v-5.6c0-2.1-1.1-3.4-3.1-3.4c-2.2,0-3.7,1.7-3.7,4.1v4.9h-1v-9.7h1v2
		c0.7-1.4,2.2-2.3,3.8-2.2C-15055.1-10670.1-15053.5-10668.6-15053.5-10665.9z"/>
	<path id="Trazado_9132" d="M-15050.2-10665c-0.1-2.7,2.1-5,4.9-5.1c0.1,0,0.2,0,0.2,0c2.7-0.1,5,2.1,5.1,4.8c0,0.1,0,0.2,0,0.2
		c0.1,2.7-2.1,5-4.8,5.1c-0.1,0-0.2,0-0.2,0c-2.8,0.1-5-2.1-5.1-4.9C-15050.2-10664.9-15050.2-10664.9-15050.2-10665z
		 M-15040.9-10665c0.1-2.3-1.7-4.1-4-4.2c0,0-0.1,0-0.1,0c-2.3,0-4.1,1.8-4.2,4c0,0,0,0.1,0,0.1c0,2.3,1.7,4.1,4,4.2
		c0.1,0,0.1,0,0.2,0c2.3,0,4.1-1.8,4.1-4C-15040.9-10664.9-15040.9-10664.9-15040.9-10665L-15040.9-10665z"/>
	<path id="Trazado_9133" d="M-15027.8-10665.9v5.7h-1v-5.6c0-2.1-1.1-3.4-3.1-3.4c-2.2,0-3.7,1.7-3.7,4.1v4.9h-1v-9.7h1v2
		c0.7-1.4,2.2-2.3,3.8-2.2C-15029.3-10670.1-15027.8-10668.6-15027.8-10665.9z"/>
	<path id="Trazado_9134" d="M-15024-10672.7c0-0.4,0.3-0.8,0.8-0.7c0,0,0,0,0,0c0.4,0,0.8,0.3,0.8,0.7c0,0,0,0,0,0
		c0,0.4-0.3,0.8-0.7,0.8c0,0,0,0,0,0C-15023.6-10671.9-15023.9-10672.2-15024-10672.7C-15024-10672.7-15024-10672.7-15024-10672.7z
		 M-15023.6-10669.8h1v9.7h-1V-10669.8z"/>
	<path id="Trazado_9135" d="M-15019.1-10665c-0.1-2.7,2-5,4.7-5.1c0.1,0,0.2,0,0.3,0c1.9-0.1,3.7,1,4.4,2.8l-0.9,0.3
		c-0.6-1.4-2-2.2-3.5-2.2c-2.2,0-4,1.8-4.1,4c0,0.1,0,0.1,0,0.2c-0.1,2.2,1.7,4.1,3.9,4.2c0.1,0,0.1,0,0.2,0
		c1.5,0.1,2.9-0.8,3.5-2.1l0.9,0.2c-0.7,1.8-2.5,2.9-4.4,2.8c-2.7,0-5-2.1-5-4.9C-15019.1-10664.9-15019.1-10664.9-15019.1-10665z"
		/>
	<g id="Grupo_1008" transform="translate(-15086.621 -10716.387)">
		<g>
			<defs>
				<path id="SVGID_1_" d="M19,35.7c-0.8,0-1.7-0.1-2.5-0.2c-2.1-0.3-4.1-1.2-5.8-2.4c-2-1.4-3.7-3.4-4.7-5.6
					c-1.4-2.8-1.7-6.1-1-9.1c0.7-3.1,2.4-5.8,4.8-7.8c2.2-1.9,5-3,7.9-3.2c0.8-0.1,1.6-0.1,2.4,0c2.2,0.1,4.3,0.9,6.1,2.1
					c0.3,0.2,0.6,0.4,0.9,0.5c0.2,0.1,0.4,0.1,0.5-0.1c0.2-0.3,0.4-0.6,0.5-1c0.1-0.2,0-0.4-0.2-0.5c-0.2-0.1-0.4-0.3-0.6-0.4
					c-2.3-1.4-4.9-2.3-7.7-2.4C17,5.5,14.5,6,12.3,7c-2.3,1-4.4,2.6-6,4.7C4.2,14.3,3,17.6,2.9,21c-0.1,3,0.6,5.9,2.1,8.5
					c0.8,1.5,1.9,2.8,3.2,3.9c2,1.8,4.5,3.1,7.2,3.7c1.1,0.2,2.3,0.4,3.5,0.4c2.2,0,4.5,0,6.8,0c5.4,0,10.9,0,16.3,0
					c1.3,0,2.6-0.3,3.9-0.8c2-0.8,3.7-2.1,5-3.9c1.4-1.9,2.1-4.2,2.1-6.5c0-1.7-0.4-3.4-1.1-4.9c-1-2.1-2.7-3.9-4.8-5
					c-1.9-1-3.9-1.5-6-1.3c-0.4,0-0.9,0-1.1,0.4c-0.2,0.3-0.4,0.6-0.5,0.8c-0.1,0.1-0.2,0.3-0.1,0.5s0.3,0.1,0.5,0.1
					c0.6,0,1.1-0.1,1.7-0.1c1.3-0.1,2.6,0.2,3.8,0.7c2.7,1,4.8,3.3,5.6,6.1c0.6,2,0.6,4.1-0.2,6c-0.6,1.6-1.6,3.1-3,4.2
					c-1.4,1.1-3.1,1.8-4.9,2c-0.8,0.1-1.5,0.1-2.3,0.1c-3.5,0-6.9,0-10.4,0L19,35.7z"/>
			</defs>
			<clipPath id="SVGID_00000111163934941526466640000007366746063339758778_">
				<use xlink:href="#SVGID_1_"  style="overflow:visible;"/>
			</clipPath>
			
				<g id="Grupo_1007" transform="translate(0 0)" style="clip-path:url(#SVGID_00000111163934941526466640000007366746063339758778_);">
				<rect id="Rectángulo_294" x="-10.5" y="1.7" width="65" height="39.6"/>
			</g>
		</g>
	</g>
	<g id="Grupo_1010" transform="translate(-15099.686 -10704.574)">
		<g>
			<defs>
				<path id="SVGID_00000023993520546809683460000002160079399662591625_" d="M12.6,5.6c0.9,0,1.7,0.1,2.6,0.4
					c0.3,0.1,0.4,0.2,0.4,0.5c0,0.3,0,0.5-0.1,0.8c0,0.2-0.2,0.3-0.4,0.3c0,0,0,0,0,0c-0.3,0-0.6,0-0.9-0.1
					c-1.7-0.4-3.5-0.1-5.1,0.6c-3,1.4-4.8,4.6-4.5,7.9c0.2,2.7,1.8,5.1,4.3,6.4c1.1,0.6,2.4,0.9,3.7,0.9c2.1,0,4.2,0,6.3,0
					c1.2,0,2.3,0,3.5,0c0.1,0,0.3,0,0.4,0.1c0.3,0.2,0.6,0.4,1,0.6l0.5,0.3c0.2,0.1,0.3,0.2,0.5,0.3c0.1,0.1,0.1,0.2,0.1,0.3
					c0,0.1-0.1,0.1-0.2,0.1c-0.4,0-0.7,0-1.1,0c-3.6,0.1-7.2,0-10.7,0c-2.2,0-4.3-0.7-6-2c-1.9-1.4-3.2-3.5-3.6-5.8
					C2.3,13.6,3.6,10,6.5,7.7c1.5-1.3,3.4-2,5.4-2.1C12.1,5.6,12.4,5.6,12.6,5.6z"/>
			</defs>
			<clipPath id="SVGID_00000083787729614056279190000004497310843126285722_">
				<use xlink:href="#SVGID_00000023993520546809683460000002160079399662591625_"  style="overflow:visible;"/>
			</clipPath>
			
				<g id="Grupo_1009" transform="translate(0)" style="clip-path:url(#SVGID_00000083787729614056279190000004497310843126285722_);">
				<rect id="Rectángulo_295" x="2.5" y="-10.1" width="65" height="39.6"/>
			</g>
		</g>
	</g>
	<g id="Grupo_1012" transform="translate(-15061.652 -10715.817)">
		<g>
			<defs>
				<path id="SVGID_00000172398964157662413270000006080135628445482122_" d="M6.3,24.6l5-8.1c-0.1,0-0.1,0-0.1,0
					C8.5,18,5.1,17,3.6,14.3c-0.3-0.5-0.5-1.1-0.6-1.7C2.6,11,3,9.3,4,8c0.6-0.8,1.4-1.4,2.3-1.8c2-0.9,4.4-0.8,6.3,0.4
					c1.6,1,2.6,2.8,2.6,4.7c0,1.1-0.2,2.2-0.7,3.2c-0.4,0.8-0.9,1.6-1.4,2.4c-1.5,2.5-3.1,5-4.6,7.6c-0.1,0.1-0.2,0.2-0.4,0.2
					c-0.5,0-1,0-1.5,0C6.5,24.6,6.4,24.6,6.3,24.6z M9,7.1c-0.2,0-0.3,0-0.5,0c-0.1,0-0.3,0-0.4,0.1C6.7,7.3,5.5,8.2,5,9.5
					c-0.8,1.7-0.4,3.8,1,5.1c1.3,1.3,3.3,1.6,4.9,0.8c1.6-0.8,2.6-2.5,2.5-4.3c0-1.4-0.8-2.7-1.9-3.4C10.7,7.3,9.9,7,9,7.1z"/>
			</defs>
			<clipPath id="SVGID_00000165945349910217105730000012626040721991718555_">
				<use xlink:href="#SVGID_00000172398964157662413270000006080135628445482122_"  style="overflow:visible;"/>
			</clipPath>
			
				<g id="Grupo_1011" transform="translate(0 0)" style="clip-path:url(#SVGID_00000165945349910217105730000012626040721991718555_);">
				<rect id="Rectángulo_296" x="-35.5" y="1.2" width="65" height="39.6"/>
			</g>
		</g>
	</g>
</g>
</svg>
